<svg
    xmlns="http://www.w3.org/2000/svg"
    width="16"
    height="16"
    viewBox="0 0 16 16"
    fill="none"
>
    <g clip-path="url(#clip0_14819_9754)">
        <path
            d="M11.5555 16H2.66665C1.95431 16 1.28467 15.7226 0.781023
                15.2189C0.277378 14.7152 0 14.0456 0 13.3333V4.44444C0 3.73213 0.277409
                3.06249 0.781054 2.55884C1.2847 2.0552 1.95434 1.77779 2.66668
                1.77779H6.22223C6.71317 1.77779 7.11112 2.17574 7.11112 2.66668C7.11112
                3.15763 6.71317 3.55558 6.22223 3.55558H2.66665C2.4292 3.55558 2.20601
                3.64805 2.03815 3.81591C1.87029 3.98377 1.77779 4.20699 1.77779
                4.44444V13.3333C1.77779 13.5708 1.87026 13.794 2.03815 13.9619C2.20601
                14.1297 2.4292 14.2222 2.66665 14.2222H11.5555C11.7929 14.2222 12.0161
                14.1297 12.184 13.9618C12.3519 13.794 12.4444 13.5707 12.4444
                13.3333V9.77777C12.4444 9.28683 12.8423 8.88891 13.3333 8.88891C13.8242
                8.88891 14.2222 9.28686 14.2222 9.77777V13.3333C14.2222 14.0456 13.9448
                14.7152 13.4411 15.2189C12.9374 15.7226 12.2678 16 11.5555 16ZM6.22223
                10.6666C5.99472 10.6666 5.76724 10.5799 5.5937 10.4063C5.24658 10.0592
                5.24658 9.49633 5.5937 9.14921L12.9651 1.77779H9.77777C9.28683 1.77779
                8.88891 1.37984 8.88891 0.888894C8.88891 0.397948 9.28683 0 9.77777
                0H15.1111C15.234 0 15.3511 0.0249649 15.4576 0.0700819C15.557 0.112125
                15.6504 0.173047 15.732 0.252878L15.7321 0.252941C15.7327 0.253531
                15.7333 0.254089 15.7338 0.254679C15.734 0.254835 15.7342 0.255021
                15.7344 0.255176C15.7348 0.255611 15.7353 0.256077 15.7357
                0.256543C15.736 0.256853 15.7363 0.257132 15.7366 0.257443C15.737
                0.257785 15.7373 0.258157 15.7376 0.258437C15.7382 0.259058 15.7389
                0.25971 15.7395 0.260362C15.7402 0.260983 15.7408 0.261666 15.7415
                0.262287C15.7418 0.262597 15.7422 0.263001 15.7424 0.263281C15.7428
                0.263591 15.743 0.263871 15.7433 0.264181C15.7438 0.264647 15.7443
                0.265082 15.7447 0.265578C15.7449 0.265703 15.7451 0.26592 15.7452
                0.266075C15.7458 0.266665 15.7464 0.267255 15.7469 0.267845L15.747
                0.267907C15.8268 0.349633 15.8878 0.442972 15.9298 0.542335C15.9749
                0.64884 15.9999 0.765901 15.9999 0.888863V6.2222C15.9999 6.71314
                15.6019 7.11109 15.111 7.11109C14.62 7.11109 14.2221 6.71314 14.2221
                6.2222V3.03488L6.8506 10.4063C6.67719 10.5799 6.44971 10.6666 6.22223
                10.6666Z"
            fill="#DA5D28"
        />
    </g>
    <defs>
        <clipPath id="clip0_14819_9754">
            <rect width="16" height="16" fill="white"/>
        </clipPath>
    </defs>
</svg>
