<svg xmlns="http://www.w3.org/2000/svg" xmlns:xlink="http://www.w3.org/1999/xlink" viewBox="0 0 1375 1375" width="30" height="30">
    <path id="path26" class="cls-2" d="M1040.7,335.51C1036.41,133.72,824.59-29.65,769.5,239c117.69-42.48,208.15,39.67,208.15,39.67" fill="#141414"/>
    <path id="path30" class="cls-2" d="M894.74,472.73a43.22,43.22,0,1,0-54.85-27,43.22,43.22,0,0,0,54.85,27M30.8,813.78S-56.58,581.16,209.2,456.64C359,404.27,406.85,476.06,537.87,379.18,650,285.12,701.78,298.84,701.78,298.84c-97.89,81.89-53.3,304.6,52.65,280.54-68.35-3.16-151.86-280.37,90-339.08,130.25-26.7,257,106.78,221.66,263.58-12.5,64.93-18.42,208.12,122.44,214.23,104.66.41,113.91-73,113.91-73s33.94-6.16,36.83,23.5c9.84,18.28,16.94,33.88-4,51.82s-242.68,187.51-405-16.9c-50.41-82.13-224-55.55-194.94,97.7,45.59,135,57.83,171.11,57.83,171.11s51.45,108.84-63.63,160.54c-77.47,28.07-130.26-36.16-142-70.93s-75.44-219.6-75.44-219.6S473.69,753,367.75,787.9C322.46,803.37,283,860.08,309,936.54c41.62,122.79,66.85,197.27,66.85,197.27s31.71,98.6-64.55,140.88c-79.44,28.13-130.71-22.92-145.18-63.66S30.8,813.78,30.8,813.78" fill="#141414"/>
    <path id="path34" class="cls-2" d="M820.55,459.53a38.67,38.67,0,1,0,24.14-49.07,38.67,38.67,0,0,0-24.14,49.07" fill="#141414"/>
</svg>