<svg xmlns="http://www.w3.org/2000/svg" width="30" height="30" viewBox="0 0 30 30" fill="none">
    <path
        opacity="0.5"
        fill-rule="evenodd"
        clip-rule="evenodd"
        d="M15 3.4375C8.61421 3.4375 3.4375 8.61421 3.4375 15C3.4375 21.3857
           8.61421 26.5625 15 26.5625C21.3857 26.5625 26.5625 21.3857 26.5625 15C26.5625
           8.61421 21.3857 3.4375 15 3.4375ZM1.5625 15C1.5625 7.57868 7.57868 1.5625 15
           1.5625C22.4214 1.5625 28.4375 7.57868 28.4375 15C28.4375 22.4214 22.4214
           28.4375 15 28.4375C7.57868 28.4375 1.5625 22.4214 1.5625 15Z"
        fill="white"
    />
    <path
        fill-rule="evenodd"
        clip-rule="evenodd"
        d="M15 10.3125C13.7919 10.3125 12.8125 11.2919 12.8125 12.5H10.9375C10.9375
           10.2563 12.7564 8.4375 15 8.4375C17.2436 8.4375 19.0625 10.2563 19.0625
           12.5C19.0625 14.421 17.7292 16.0306 15.9375 16.4538V18.125H14.0625V14.6875H15
           C16.2081 14.6875 17.1875 13.7081 17.1875 12.5C17.1875 11.2919 16.2081
           10.3125 15 10.3125ZM14.0625 21.875V20H15.9375V21.875H14.0625Z"
        fill="white"
    />            </svg>
