<svg xmlns="http://www.w3.org/2000/svg" width="32" height="32" viewBox="0 0 32 32" fill="none">
    <path
        d="M26.9441 17.9076L25.9457 17.0857C25.2618 16.5227 25.263 15.4762 25.9457
            14.9143L26.9441 14.0924C27.6546 13.5075 27.8363 12.5044 27.3762 11.7073L25.4047
            8.29267C24.9445 7.49561 23.9848 7.15155 23.1231 7.47433L21.9121 7.92803C21.0826
            8.23872 20.177 7.7147 20.0316 6.84236L19.8191 5.5667C19.6677 4.65892 18.89 4 17.9696
            4H14.0267C13.1063 4 12.3285 4.65892 12.1772 5.56675L11.9646 6.84236C11.819 7.71625
            10.9121 8.2382 10.0842 7.92808L8.87314 7.47433C8.01144 7.15155 7.05181 7.49566 6.59155
            8.29267L4.62012 11.7073C4.15995 12.5043 4.34164 13.5074 5.05222 14.0924L6.05061
            14.9143C6.73461 15.4773 6.73325 16.5237 6.05061 17.0856L5.05217 17.9075C4.34164 18.4925
            4.15991 19.4956 4.62008 20.2926L6.59155 23.7073C7.05176 24.5043 8.0112 24.8484 8.87314
            24.5256L10.0841 24.0719C10.9137 23.7611 11.8192 24.2855 11.9645 25.1576L12.1772
            26.4332C12.3285 27.3411 13.1063 28 14.0267 28H17.9696C18.8899 28 19.6677 27.3411 19.819
            26.4333L20.0316 25.1577C20.1772 24.284 21.084 23.7617 21.9121 24.072L23.1231
            24.5257C23.985 24.8485 24.9445 24.5044 25.4047 23.7073L27.3762 20.2926C27.8363 19.4956
            27.6546 18.4925 26.9441 17.9076ZM23.7809 22.7698L22.5699 22.3161C20.634 21.5909 18.5213
            22.8144 18.1822 24.8494L17.9696 26.125H14.0267L13.8141 24.8494C13.4743 22.8105 11.3585
            21.5923 9.42636 22.3161L8.21534 22.7698L6.24392 19.3552L7.24231 18.5333C8.83836 17.2194
            8.83503 14.7779 7.24231 13.4667L6.24392 12.6448L8.21539 9.23017L9.42636 9.68388C11.3623
            10.409 13.475 9.18559 13.8141 7.15061L14.0267 5.875H17.9696L18.1821 7.15061C18.522
            9.18977 20.6379 10.4075 22.5699 9.68388L23.7809 9.23017L25.7528 12.6444C25.7528 12.6444
            25.7526 12.6445 25.7523 12.6448L24.7539 13.4667C23.1579 14.7805 23.1611 17.222 24.7539
            18.5332L25.7523 19.3551L23.7809 22.7698ZM15.9981 11.375C13.4479 11.375 11.3731 13.4498
            11.3731 16C11.3731 18.5502 13.4479 20.625 15.9981 20.625C18.5484 20.625 20.6232 18.5502
            20.6232 16C20.6232 13.4498 18.5484 11.375 15.9981 11.375ZM15.9981 18.75C14.4818 18.75
            13.2481 17.5164 13.2481 16C13.2481 14.4836 14.4818 13.25 15.9981 13.25C17.5145 13.25
            18.7482 14.4836 18.7482 16C18.7482 17.5164 17.5145 18.75 15.9981 18.75Z"
        fill="currentColor"
    />
</svg>
